<svg width="50" height="20" viewBox="0 0 50 20" fill="none" xmlns="http://www.w3.org/2000/svg">
<path d="M3.58987 1L41.7131 1C42.5032 1 43.4909 1.47 43.9092 2.05L48.7661 8.73C49.2309 9.38 49.1844 10.4 48.6499 11.01L42.6311 17.91C42.2012 18.4 41.2716 18.8 40.5628 18.8H3.58987C1.55647 18.8 0.324872 16.88 1.39386 15.39L4.61238 10.96C5.0423 10.37 5.0423 9.41 4.61238 8.82L1.39386 4.39C0.324872 2.92 1.56809 1 3.58987 1Z" fill="#292929" stroke="#292929" stroke-width="1.5" stroke-miterlimit="10" stroke-linecap="round" stroke-linejoin="round"/>
<path d="M10.6732 13.9V12.436L13.4692 10.144C14.0212 9.69602 14.4012 9.33202 14.6092 9.05202C14.8172 8.77202 14.9212 8.46402 14.9212 8.12802C14.9212 7.77602 14.8172 7.50802 14.6092 7.32402C14.4092 7.13202 14.1372 7.03602 13.7932 7.03602C13.4812 7.03602 13.1972 7.12402 12.9412 7.30002C12.6932 7.46802 12.4052 7.75602 12.0772 8.16402L10.7812 7.12002C11.2292 6.52002 11.6852 6.08002 12.1492 5.80002C12.6132 5.52002 13.2012 5.38002 13.9132 5.38002C14.7772 5.38002 15.4732 5.61602 16.0012 6.08802C16.5372 6.56002 16.8052 7.18802 16.8052 7.97202V7.99602C16.8052 8.65202 16.6452 9.19602 16.3252 9.62802C16.0052 10.06 15.4292 10.6 14.5972 11.248L13.2292 12.304H16.8892V13.9H10.6732ZM21.9298 14.044C20.8178 14.044 19.9178 13.636 19.2298 12.82C18.5498 12.004 18.2098 10.972 18.2098 9.72402V9.70002C18.2098 8.46002 18.5578 7.42802 19.2538 6.60402C19.9498 5.77202 20.8498 5.35602 21.9538 5.35602C23.0498 5.35602 23.9418 5.76802 24.6298 6.59202C25.3258 7.40802 25.6738 8.43602 25.6738 9.67602V9.70002C25.6738 10.94 25.3258 11.976 24.6298 12.808C23.9338 13.632 23.0338 14.044 21.9298 14.044ZM20.6098 11.62C20.9538 12.124 21.4018 12.376 21.9538 12.376C22.5058 12.376 22.9458 12.128 23.2738 11.632C23.6098 11.136 23.7778 10.5 23.7778 9.72402V9.70002C23.7778 8.93202 23.6058 8.29602 23.2618 7.79202C22.9178 7.28002 22.4738 7.02402 21.9298 7.02402C21.3858 7.02402 20.9458 7.27202 20.6098 7.76802C20.2738 8.26402 20.1058 8.90002 20.1058 9.67602V9.70002C20.1058 10.476 20.2738 11.116 20.6098 11.62ZM28.4048 13.9V7.31202L26.9408 7.67202L26.5568 6.16002L28.9688 5.44002H30.2288V13.9H28.4048ZM35.1113 14.02C34.1673 14.02 33.3913 13.796 32.7833 13.348C32.1753 12.9 31.8713 12.316 31.8713 11.596V11.572C31.8713 11.076 31.9793 10.668 32.1953 10.348C32.4193 10.028 32.7633 9.76002 33.2273 9.54402C32.5153 9.12002 32.1593 8.50802 32.1593 7.70802V7.68402C32.1593 7.02802 32.4313 6.48002 32.9753 6.04002C33.5273 5.60002 34.2393 5.38002 35.1113 5.38002C35.9833 5.38002 36.6913 5.60002 37.2353 6.04002C37.7873 6.48002 38.0633 7.02802 38.0633 7.68402V7.70802C38.0633 8.50802 37.7073 9.12002 36.9953 9.54402C37.4513 9.78402 37.7913 10.056 38.0153 10.36C38.2393 10.664 38.3513 11.052 38.3513 11.524V11.548C38.3513 12.308 38.0473 12.912 37.4393 13.36C36.8393 13.8 36.0633 14.02 35.1113 14.02ZM34.2353 8.64402C34.4593 8.83602 34.7513 8.93202 35.1113 8.93202C35.4713 8.93202 35.7593 8.83602 35.9753 8.64402C36.1993 8.45202 36.3113 8.20802 36.3113 7.91202V7.88802C36.3113 7.61602 36.2033 7.38402 35.9873 7.19202C35.7713 7.00002 35.4793 6.90402 35.1113 6.90402C34.7433 6.90402 34.4513 7.00002 34.2353 7.19202C34.0193 7.37602 33.9113 7.60402 33.9113 7.87602V7.90002C33.9113 8.19602 34.0193 8.44402 34.2353 8.64402ZM35.1113 12.496C35.5593 12.496 35.9113 12.4 36.1673 12.208C36.4313 12.008 36.5633 11.756 36.5633 11.452V11.428C36.5633 11.108 36.4273 10.856 36.1553 10.672C35.8913 10.488 35.5433 10.396 35.1113 10.396C34.6793 10.396 34.3273 10.488 34.0553 10.672C33.7913 10.856 33.6593 11.108 33.6593 11.428V11.452C33.6593 11.748 33.7913 11.996 34.0553 12.196C34.3193 12.396 34.6713 12.496 35.1113 12.496Z" fill="white"/>
</svg>
