<svg width="50" height="20" viewBox="0 0 50 20" fill="none" xmlns="http://www.w3.org/2000/svg">
<path d="M3.58987 1L41.7131 1C42.5032 1 43.4909 1.47 43.9092 2.05L48.7661 8.73C49.2309 9.38 49.1844 10.4 48.6499 11.01L42.6311 17.91C42.2012 18.4 41.2716 18.8 40.5628 18.8H3.58987C1.55647 18.8 0.324872 16.88 1.39386 15.39L4.61238 10.96C5.0423 10.37 5.0423 9.41 4.61238 8.82L1.39386 4.39C0.324872 2.92 1.56809 1 3.58987 1Z" fill="#292929" stroke="#292929" stroke-width="1.5" stroke-miterlimit="10" stroke-linecap="round" stroke-linejoin="round"/>
<path d="M10.6732 13.9V12.436L13.4692 10.144C14.0212 9.69602 14.4012 9.33202 14.6092 9.05202C14.8172 8.77202 14.9212 8.46402 14.9212 8.12802C14.9212 7.77602 14.8172 7.50802 14.6092 7.32402C14.4092 7.13202 14.1372 7.03602 13.7932 7.03602C13.4812 7.03602 13.1972 7.12402 12.9412 7.30002C12.6932 7.46802 12.4052 7.75602 12.0772 8.16402L10.7812 7.12002C11.2292 6.52002 11.6852 6.08002 12.1492 5.80002C12.6132 5.52002 13.2012 5.38002 13.9132 5.38002C14.7772 5.38002 15.4732 5.61602 16.0012 6.08802C16.5372 6.56002 16.8052 7.18802 16.8052 7.97202V7.99602C16.8052 8.65202 16.6452 9.19602 16.3252 9.62802C16.0052 10.06 15.4292 10.6 14.5972 11.248L13.2292 12.304H16.8892V13.9H10.6732ZM21.9298 14.044C20.8178 14.044 19.9178 13.636 19.2298 12.82C18.5498 12.004 18.2098 10.972 18.2098 9.72402V9.70002C18.2098 8.46002 18.5578 7.42802 19.2538 6.60402C19.9498 5.77202 20.8498 5.35602 21.9538 5.35602C23.0498 5.35602 23.9418 5.76802 24.6298 6.59202C25.3258 7.40802 25.6738 8.43602 25.6738 9.67602V9.70002C25.6738 10.94 25.3258 11.976 24.6298 12.808C23.9338 13.632 23.0338 14.044 21.9298 14.044ZM20.6098 11.62C20.9538 12.124 21.4018 12.376 21.9538 12.376C22.5058 12.376 22.9458 12.128 23.2738 11.632C23.6098 11.136 23.7778 10.5 23.7778 9.72402V9.70002C23.7778 8.93202 23.6058 8.29602 23.2618 7.79202C22.9178 7.28002 22.4738 7.02402 21.9298 7.02402C21.3858 7.02402 20.9458 7.27202 20.6098 7.76802C20.2738 8.26402 20.1058 8.90002 20.1058 9.67602V9.70002C20.1058 10.476 20.2738 11.116 20.6098 11.62ZM26.7982 13.9V12.436L29.5942 10.144C30.1462 9.69602 30.5262 9.33202 30.7342 9.05202C30.9422 8.77202 31.0462 8.46402 31.0462 8.12802C31.0462 7.77602 30.9422 7.50802 30.7342 7.32402C30.5342 7.13202 30.2622 7.03602 29.9182 7.03602C29.6062 7.03602 29.3222 7.12402 29.0662 7.30002C28.8182 7.46802 28.5302 7.75602 28.2022 8.16402L26.9062 7.12002C27.3542 6.52002 27.8102 6.08002 28.2742 5.80002C28.7382 5.52002 29.3262 5.38002 30.0382 5.38002C30.9022 5.38002 31.5982 5.61602 32.1262 6.08802C32.6622 6.56002 32.9302 7.18802 32.9302 7.97202V7.99602C32.9302 8.65202 32.7702 9.19602 32.4502 9.62802C32.1302 10.06 31.5542 10.6 30.7222 11.248L29.3542 12.304H33.0142V13.9H26.7982ZM35.8228 13.9V7.31202L34.3588 7.67202L33.9748 6.16002L36.3868 5.44002H37.6468V13.9H35.8228Z" fill="white"/>
</svg>
