<svg width="21" height="20" viewBox="0 0 21 20" fill="none" xmlns="http://www.w3.org/2000/svg">
<g clip-path="url(#clip0_4_1055)">
<path d="M16.8803 0H3.63248C1.62632 0 0 1.62632 0 3.63248V16.3675C0 18.3737 1.62632 20 3.63248 20H16.8803C18.8865 20 20.5128 18.3737 20.5128 16.3675V3.63248C20.5128 1.62632 18.8865 0 16.8803 0Z" fill="#2356F6"/>
<path d="M3.62408 14.0115V5.27344C3.62408 5.19089 3.6516 5.14503 3.70663 5.13585C3.86251 5.12681 4.10103 5.11993 4.4222 5.11521C4.74321 5.11068 5.09181 5.10609 5.46799 5.10144C5.84405 5.09693 6.18808 5.09463 6.50006 5.09455C7.25218 5.09455 7.85076 5.17712 8.29581 5.34226C8.74069 5.50738 9.08241 5.71608 9.32099 5.96837C9.5414 6.19067 9.7064 6.46172 9.80264 6.75961C9.88035 7.00456 9.92206 7.2595 9.92646 7.51645C9.93133 7.79102 9.88466 8.06408 9.78887 8.32144C9.71012 8.5325 9.59866 8.72985 9.45859 8.90628C9.35417 9.04028 9.2287 9.15646 9.08708 9.25028C9.28285 9.35405 9.46535 9.48111 9.63061 9.6287C9.84466 9.8206 10.0199 10.0518 10.1466 10.3099C10.3034 10.6405 10.3788 11.0037 10.3668 11.3694C10.3754 11.8928 10.2136 12.4047 9.9058 12.8281C9.59835 13.2501 9.15802 13.5781 8.58481 13.812C8.01135 14.0459 7.3256 14.1629 6.52756 14.1629H5.61247C5.32351 14.1629 5.05747 14.1606 4.81436 14.156C4.57118 14.1512 4.36019 14.1466 4.18139 14.1422C4.00248 14.1375 3.84882 14.1352 3.7204 14.1353C3.65609 14.1263 3.62399 14.085 3.62408 14.0115ZM5.48177 6.73209V8.64481H6.41747C6.6652 8.64481 6.90831 8.6494 7.1468 8.65857C7.31793 8.65984 7.4885 8.67828 7.65595 8.71361C7.77744 8.60985 7.87788 8.48372 7.9518 8.34208C8.03516 8.17091 8.07533 7.98193 8.06878 7.79165C8.07832 7.57553 8.01534 7.36241 7.88987 7.18618C7.75653 7.02057 7.5769 6.89841 7.37387 6.83529C7.09549 6.74966 6.80497 6.71014 6.51383 6.71831H6.11474C5.99542 6.71831 5.88764 6.72061 5.79139 6.7252C5.69506 6.72994 5.59186 6.73223 5.48177 6.73209ZM5.48177 10.2686V12.5391C5.63764 12.5483 5.7936 12.5552 5.94964 12.5597C6.10551 12.5645 6.29358 12.5668 6.51383 12.5666C6.85051 12.5717 7.18625 12.53 7.51147 12.4428C7.76304 12.3827 7.99077 12.2485 8.1651 12.0575C8.31449 11.8757 8.39274 11.6459 8.38529 11.4107C8.39057 11.1822 8.32833 10.9573 8.20637 10.764C8.08706 10.5806 7.86689 10.4475 7.54586 10.3649C7.42114 10.3348 7.29481 10.3118 7.16747 10.2961C7.00079 10.2764 6.83304 10.2672 6.6652 10.2686L5.48177 10.2686Z" fill="white"/>
<path d="M13.1886 11.2181C13.2219 11.4751 13.3111 11.7217 13.45 11.9405C13.6039 12.1699 13.8216 12.3493 14.0762 12.4565C14.3559 12.5851 14.7205 12.6493 15.1701 12.6492C15.4676 12.6504 15.7647 12.6251 16.0577 12.5735C16.3343 12.524 16.6044 12.4432 16.8627 12.3327C16.9085 12.2961 16.9315 12.3189 16.9315 12.4015V13.7087C16.9337 13.7444 16.9266 13.7799 16.9109 13.812C16.8951 13.837 16.8739 13.8581 16.8489 13.8739C16.564 14.0086 16.2636 14.108 15.9545 14.1697C15.5553 14.2447 15.1496 14.2793 14.7436 14.2729C14.0921 14.2729 13.5462 14.172 13.106 13.9702C12.6899 13.7869 12.3223 13.5089 12.0327 13.1583C11.7622 12.828 11.5609 12.4466 11.441 12.0368C11.3222 11.6324 11.2619 11.213 11.2621 10.7915C11.2608 10.3312 11.3328 9.87369 11.4754 9.43606C11.6127 9.00918 11.8298 8.61226 12.1152 8.2664C12.3968 7.9246 12.7488 7.64765 13.1473 7.45452C13.5954 7.24779 14.085 7.14658 14.5784 7.15867C15.0349 7.14713 15.4883 7.2364 15.9063 7.42011C16.2596 7.58011 16.5688 7.82327 16.8077 8.12878C17.0331 8.41971 17.2054 8.74812 17.3168 9.09892C17.4252 9.43698 17.4809 9.78972 17.4819 10.1447C17.4819 10.3466 17.475 10.5301 17.4613 10.6952C17.4475 10.8603 17.4209 11.0319 17.4118 11.1052C17.4072 11.1351 17.3923 11.1624 17.3697 11.1825C17.3471 11.2026 17.3182 11.2142 17.288 11.2153C17.2329 11.2153 13.1886 11.2181 13.1886 11.2181ZM13.1886 9.88327H14.9912C15.2114 9.88327 15.3742 9.88098 15.4797 9.87639C15.5468 9.87642 15.6136 9.86951 15.6793 9.85575V9.77318C15.6765 9.66556 15.658 9.55893 15.6242 9.4567C15.55 9.22193 15.4007 9.01804 15.1993 8.87634C14.998 8.73463 14.7557 8.66296 14.5096 8.67234C14.278 8.65833 14.0474 8.71203 13.8458 8.82687C13.6442 8.94171 13.4804 9.11273 13.3744 9.31908C13.2805 9.49508 13.2177 9.68594 13.1886 9.88327Z" fill="white"/>
<path d="M12.3217 4.83624H16.4361C16.5003 4.83624 16.5326 4.87308 16.5326 4.94649V6.06282C16.5347 6.0778 16.5333 6.09307 16.5286 6.10742C16.5238 6.12178 16.5157 6.13482 16.505 6.14552C16.4943 6.15622 16.4813 6.16428 16.4669 6.16906C16.4526 6.17384 16.4373 6.17522 16.4223 6.17307H12.3079C12.2435 6.17307 12.2114 6.13647 12.2114 6.06282V4.93272C12.2114 4.86856 12.248 4.83624 12.3217 4.83624Z" fill="white"/>
</g>
<defs>
<clipPath id="clip0_4_1055">
<rect width="20.5128" height="20" fill="white"/>
</clipPath>
</defs>
</svg>
