<svg width="27" height="30" viewBox="0 0 27 30" fill="none" xmlns="http://www.w3.org/2000/svg">
<path fill-rule="evenodd" clip-rule="evenodd" d="M2.68062 27.001L0.273216 0H26.7268L24.3168 26.9965L13.484 30L2.68062 27.001Z" fill="#0071BC"/>
<path fill-rule="evenodd" clip-rule="evenodd" d="M13.5221 27.7029L22.2647 25.2978L24.3131 2.24866H13.5221V27.7029Z" fill="#29ABE2"/>
<path fill-rule="evenodd" clip-rule="evenodd" d="M5.78372 12.1686L6.07372 15.4753L13.5222 12.1686V8.85657L5.78372 12.1686Z" fill="#B3B3B3"/>
<path fill-rule="evenodd" clip-rule="evenodd" d="M21.7716 5.32111L13.5221 8.85656V12.1686L21.4871 8.6278L21.7716 5.32111Z" fill="#E6E6E6"/>
<path fill-rule="evenodd" clip-rule="evenodd" d="M13.5221 20.8206L13.4965 20.8244L9.80259 19.8324L9.56126 17.1948H6.23678L6.70071 22.391L13.4958 24.2724L13.5221 24.2662V20.8206Z" fill="#E6E6E6"/>
<path fill-rule="evenodd" clip-rule="evenodd" d="M13.5221 12.1686V15.4753H17.5664L17.1988 19.7985L13.5221 20.8233V24.2687L20.2947 22.3873L21.1865 12.1686H13.5221Z" fill="white"/>
<path fill-rule="evenodd" clip-rule="evenodd" d="M13.5222 12.1686H5.78372L6.07372 15.4753H13.5222V12.1686Z" fill="#E6E6E6"/>
<path fill-rule="evenodd" clip-rule="evenodd" d="M13.5222 8.6278V5.32111H13.4886H5.19583L5.48927 8.6278H13.5222Z" fill="#E6E6E6"/>
<path fill-rule="evenodd" clip-rule="evenodd" d="M13.5221 5.32111V8.58634V8.6278H21.4871L21.7716 5.32111H13.5221Z" fill="white"/>
</svg>
