<svg width="31" height="30" viewBox="0 0 31 30" fill="none" xmlns="http://www.w3.org/2000/svg">
<path d="M10.5391 30C13.2991 30 15.5391 27.76 15.5391 25V20H10.5391C7.77906 20 5.53906 22.24 5.53906 25C5.53906 27.76 7.77906 30 10.5391 30Z" fill="#0ACF83"/>
<path d="M5.53906 15C5.53906 12.24 7.77906 10 10.5391 10H15.5391V20H10.5391C7.77906 20 5.53906 17.76 5.53906 15Z" fill="#A259FF"/>
<path d="M5.53906 5C5.53906 2.24 7.77906 0 10.5391 0H15.5391V10H10.5391C7.77906 10 5.53906 7.76 5.53906 5Z" fill="#F24E1E"/>
<path d="M15.5391 0H20.5391C23.2991 0 25.5391 2.24 25.5391 5C25.5391 7.76 23.2991 10 20.5391 10H15.5391V0Z" fill="#FF7262"/>
<path d="M25.5391 15C25.5391 17.76 23.2991 20 20.5391 20C17.7791 20 15.5391 17.76 15.5391 15C15.5391 12.24 17.7791 10 20.5391 10C23.2991 10 25.5391 12.24 25.5391 15Z" fill="#1ABCFE"/>
</svg>
