<svg width="156" height="144" viewBox="0 0 156 144" fill="none" xmlns="http://www.w3.org/2000/svg">
<g clip-path="url(#clip0_4_1132)">
<path d="M83.8615 170.4C72.9212 157.362 74.6238 137.901 87.6619 126.961L111.282 107.142L150.92 154.381L127.3 174.201C114.262 185.141 94.8017 183.438 83.8615 170.4Z" fill="#A259FF"/>
<path d="M44.2229 123.161C33.2826 110.123 34.9852 90.662 48.0233 79.7217L71.643 59.9024L111.282 107.142L87.6619 126.961C74.6238 137.901 55.1631 136.199 44.2229 123.161Z" fill="#F24E1E"/>
<path d="M71.643 59.9025L95.2627 40.0832C108.301 29.1429 127.761 30.8455 138.702 43.8836C149.642 56.9217 147.939 76.3823 134.901 87.3226L111.282 107.142L71.643 59.9025Z" fill="#FF7262"/>
<path d="M178.34 91.123C189.281 104.161 187.578 123.622 174.54 134.562C161.502 145.502 142.041 143.8 131.101 130.762C120.161 117.723 121.863 98.2628 134.901 87.3226C147.939 76.3823 167.4 78.0849 178.34 91.123Z" fill="#1ABCFE"/>
</g>
<defs>
<clipPath id="clip0_4_1132">
<rect width="185" height="185" fill="white" transform="translate(0.599365 119.515) rotate(-40)"/>
</clipPath>
</defs>
</svg>
