<svg width="27" height="30" viewBox="0 0 27 30" fill="none" xmlns="http://www.w3.org/2000/svg">
<path fill-rule="evenodd" clip-rule="evenodd" d="M2.6811 27.0011L0.273762 0H26.7262L24.3163 26.9969L13.4838 30L2.6811 27.0011Z" fill="#E44D26"/>
<path fill-rule="evenodd" clip-rule="evenodd" d="M13.5 27.7046L22.2533 25.2778L24.3127 2.20776H13.5V27.7046Z" fill="#F16529"/>
<path d="M9.1179 12.2221H13.5V15.5336H6.08931L5.19612 5.51938H13.5V8.83099H8.81526L9.1179 12.2221Z" fill="#EBEBEB"/>
<path d="M13.4855 20.8265L13.5 20.8226V24.268L13.4847 24.2723L6.70123 22.3891L6.23728 17.1895H9.56157L9.79734 19.8306L13.4855 20.8265Z" fill="#EBEBEB"/>
<path d="M13.4885 5.51938H21.7841L21.4875 8.83099H13.4885V5.51938Z" fill="white"/>
<path d="M13.4885 15.5336V12.2221H21.1862L21.1054 13.1113L20.2774 22.3891L13.4885 24.2707V20.8254L17.182 19.8285L17.5664 15.5336H13.4885Z" fill="white"/>
</svg>
