<svg width="31" height="30" viewBox="0 0 31 30" fill="none" xmlns="http://www.w3.org/2000/svg">
<g clip-path="url(#clip0_4_990)">
<path d="M0.5 10.8571C0.5 7.05679 0.5 5.15661 1.2396 3.70506C1.89017 2.42825 2.92825 1.39017 4.20506 0.739599C5.65661 0 7.55679 0 11.3571 0H19.6429C23.4432 0 25.3434 0 26.7949 0.739599C28.0718 1.39017 29.1098 2.42825 29.7604 3.70506C30.5 5.15661 30.5 7.05679 30.5 10.8571V19.1429C30.5 22.9432 30.5 24.8434 29.7604 26.2949C29.1098 27.5718 28.0718 28.6098 26.7949 29.2604C25.3434 30 23.4432 30 19.6429 30H11.3571C7.55679 30 5.65661 30 4.20506 29.2604C2.92825 28.6098 1.89017 27.5718 1.2396 26.2949C0.5 24.8434 0.5 22.9432 0.5 19.1429V10.8571Z" fill="#330000"/>
<path d="M15.0376 18.8531H10.3887L9.44286 21.8667C9.41659 21.9787 9.31349 22.058 9.20134 22.0525H6.84672C6.71245 22.0525 6.66549 21.9768 6.70585 21.8255L10.7308 9.93622C10.7711 9.81239 10.8114 9.67134 10.8516 9.51307C10.9043 9.23768 10.9312 8.95777 10.9321 8.67714C10.9206 8.59423 10.9934 8.521 11.073 8.53263H14.2728C14.3666 8.53263 14.4202 8.56704 14.4338 8.63585L19.0022 21.8461C19.0425 21.9838 19.0022 22.0526 18.8815 22.0525H16.2652C16.1734 22.0629 16.0858 22 16.064 21.908L15.0376 18.8531ZM11.1132 16.2524H14.293C13.7705 14.4672 13.181 12.7055 12.7031 10.9064C12.1875 12.7085 11.625 14.5034 11.1132 16.2524Z" fill="#FF9A00"/>
<path d="M21.7189 10.7205C21.5136 10.729 21.3089 10.6929 21.1182 10.6146C20.9274 10.5364 20.7549 10.4177 20.612 10.2664C20.4694 10.1085 20.3587 9.92333 20.2862 9.72142C20.2136 9.51951 20.1807 9.30488 20.1893 9.08988C20.182 8.87701 20.2185 8.66495 20.2966 8.46755C20.3746 8.27015 20.4924 8.09185 20.6421 7.9443C20.7905 7.79828 20.9656 7.68387 21.1573 7.6077C21.349 7.53152 21.5535 7.4951 21.7591 7.50053C22.2421 7.50053 22.6211 7.64845 22.8962 7.9443C23.035 8.09805 23.1429 8.27838 23.2137 8.47495C23.2845 8.67153 23.3168 8.88049 23.3087 9.08988C23.3171 9.30572 23.2831 9.5211 23.2088 9.72321C23.1345 9.92532 23.0213 10.11 22.876 10.2664C22.7242 10.42 22.5429 10.5396 22.3438 10.6177C22.1446 10.6959 21.9319 10.7309 21.7189 10.7205ZM20.3302 21.846V11.9796C20.3302 11.8558 20.3837 11.7938 20.4912 11.7938H22.9666C23.0738 11.7938 23.1275 11.8558 23.1276 11.9796V21.846C23.1276 21.9837 23.0739 22.0525 22.9666 22.0524H20.5113C20.3906 22.0524 20.3302 21.9836 20.3302 21.846Z" fill="#FF9A00"/>
</g>
<defs>
<clipPath id="clip0_4_990">
<rect width="30" height="30" fill="white" transform="translate(0.5)"/>
</clipPath>
</defs>
</svg>
