<svg width="31" height="30" viewBox="0 0 31 30" fill="none" xmlns="http://www.w3.org/2000/svg">
<path d="M27.7897 0H3.22162C1.72163 0 0.50573 1.21591 0.50573 2.71591V27.2727C0.50573 28.7841 1.72163 30 3.22162 30H27.7783C29.2783 30 30.4942 28.7841 30.4942 27.2841V2.71591C30.5056 1.21591 29.2897 0 27.7897 0Z" fill="#FF3366"/>
<path d="M10.5284 9.44319C11.5284 9.44319 12.3579 8.6591 12.3579 7.63637C12.3579 6.61365 11.517 5.82956 10.5284 5.82956C9.52841 5.82956 8.69887 6.61365 8.69887 7.63637C8.69887 8.6591 9.53977 9.44319 10.5284 9.44319ZM6.73297 19.1136C6.6307 19.5682 6.57388 20.0682 6.57388 20.4659C6.57388 22.0568 7.43751 23.1136 9.26704 23.1136C10.7898 23.1136 12.017 22.2159 12.9034 20.75L12.3579 22.9205H15.3806L17.1079 16C17.5397 14.25 18.3693 13.3409 19.642 13.3409C20.642 13.3409 21.2556 13.9659 21.2556 14.9886C21.2556 15.2841 21.2329 15.6136 21.1192 15.9546L20.2329 19.1364C20.0965 19.5909 20.0397 20.0568 20.0397 20.4886C20.0397 22 20.9261 23.1023 22.7897 23.1023C24.3806 23.1023 25.642 22.0796 26.3465 19.625L25.1647 19.1705C24.5738 20.8182 24.0624 21.1136 23.6533 21.1136C23.2442 21.1136 23.0283 20.8409 23.0283 20.3068C23.0283 20.0682 23.0851 19.7955 23.1647 19.4659L24.0283 16.3636C24.2442 15.6364 24.3238 14.9886 24.3238 14.3977C24.3238 12.0796 22.9261 10.875 21.2215 10.875C19.6306 10.875 18.017 12.3068 17.2102 13.8182L17.8011 11.1136H13.1875L12.5398 13.5H14.6988L13.3693 18.8182C12.3238 21.1364 10.4148 21.1705 10.1761 21.125C9.77841 21.0341 9.52841 20.8864 9.52841 20.375C9.52841 20.0796 9.58522 19.6591 9.72159 19.1364L11.7443 11.1136H6.61933L5.97161 13.5H8.0966L6.73297 19.1136Z" fill="white"/>
</svg>
