<svg width="31" height="30" viewBox="0 0 31 30" fill="none" xmlns="http://www.w3.org/2000/svg">
<g clip-path="url(#clip0_4_994)">
<path d="M0.5 10.8571C0.5 7.05679 0.5 5.15661 1.2396 3.70506C1.89017 2.42825 2.92825 1.39017 4.20506 0.739599C5.65661 0 7.55679 0 11.3571 0H19.6429C23.4432 0 25.3434 0 26.7949 0.739599C28.0718 1.39017 29.1098 2.42825 29.7604 3.70506C30.5 5.15661 30.5 7.05679 30.5 10.8571V19.1429C30.5 22.9432 30.5 24.8434 29.7604 26.2949C29.1098 27.5718 28.0718 28.6098 26.7949 29.2604C25.3434 30 23.4432 30 19.6429 30H11.3571C7.55679 30 5.65661 30 4.20506 29.2604C2.92825 28.6098 1.89017 27.5718 1.2396 26.2949C0.5 24.8434 0.5 22.9432 0.5 19.1429V10.8571Z" fill="#001E36"/>
<path d="M6.92857 21.9817V8.78936C6.92857 8.69962 6.96607 8.64833 7.05357 8.64833C8.34532 8.64833 9.63648 8.57141 10.9286 8.57141C13.0252 8.57141 15.2953 9.2883 16.0911 11.4817C16.2786 12.0201 16.3786 12.5714 16.3786 13.1483C16.3786 14.2509 16.1286 15.1612 15.6286 15.8791C14.2319 17.8846 11.8111 17.8535 9.64107 17.8535V21.9689C9.65804 22.0907 9.55422 22.1483 9.45357 22.1483H7.07857C6.97857 22.1483 6.92857 22.0971 6.92857 21.9817ZM9.65357 11.1227V15.4304C10.514 15.4934 11.4144 15.5003 12.2411 15.2253C13.1537 14.962 13.6536 14.1719 13.6536 13.2253C13.6789 12.4186 13.2394 11.6446 12.4911 11.3535C11.6743 11.0139 10.5352 10.9935 9.65357 11.1227Z" fill="#31A8FF"/>
<path d="M24.175 14.5793C23.7968 14.38 23.394 14.2342 22.9775 14.1458C22.4424 14.0199 20.3319 13.579 20.3311 14.6825C20.3498 15.2986 21.3278 15.6005 21.76 15.7765C23.2769 16.2973 24.9936 17.2282 24.9599 19.0997C25.0062 21.4294 22.749 22.3608 20.8141 22.361C19.8068 22.3714 18.7574 22.2154 17.8356 21.783C17.7476 21.7364 17.6909 21.6368 17.6947 21.5353V19.3061C17.6848 19.2167 17.7807 19.1386 17.8557 19.2029C18.759 19.7491 19.8296 20.0143 20.8745 20.0285C21.3357 20.0285 22.2499 19.9838 22.243 19.3061C22.243 18.6557 21.1494 18.3567 20.7135 18.1915C20.0815 17.9659 19.4824 17.6534 18.9324 17.2626C18.1638 16.7144 17.6816 15.8353 17.6947 14.8683C17.6902 12.6746 19.768 11.69 21.6392 11.6896C22.514 11.6823 23.4534 11.7471 24.2677 12.1024C24.3848 12.1369 24.4091 12.2602 24.4086 12.3707V14.4555C24.416 14.5849 24.2723 14.6289 24.175 14.5793Z" fill="#31A8FF"/>
</g>
<defs>
<clipPath id="clip0_4_994">
<rect width="30" height="30" fill="white" transform="translate(0.5)"/>
</clipPath>
</defs>
</svg>
